<svg xmlns="http://www.w3.org/2000/svg" viewBox="0 0 448 512"><path d="M224.1 141c-63.6 0-114.9 51.3-114.9 114.9 0 63.6 51.3 114.9 114.9 114.9 63.6 0 114.9-51.3 114.9-114.9 0-63.6-51.3-114.9-114.9-114.9zm0 186.6c-39.6 0-71.7-32.1-71.7-71.7s32.1-71.7 71.7-71.7 71.7 32.1 71.7 71.7-32.1 71.7-71.7 71.7zm146.4-194.3c0 14.9-12.1 27-27 27s-27-12.1-27-27 12.1-27 27-27 27 12.1 27 27zm76.1 27.2c-1.7-35.3-9.9-66.7-36.2-92.9C388.7 9.9 357.3 1.7 322 0 286.7-1.7 256.3 6.5 230.1 32.8c-26.2 26.2-34.4 56.6-36.1 92.9-1.7 35.3 6.5 65.7 32.8 91.9 26.2 26.2 56.6 34.4 92.9 36.1 35.3 1.7 65.7-6.5 91.9-32.8 26.2-26.2 34.4-56.6 36.1-92.9zm-48.1 0c-1.3 27.2-7.7 49.2-27.2 68.7-19.5 19.5-41.5 25.9-68.7 27.2-27.2 1.3-49.2-7.7-68.7-27.2-19.5-19.5-25.9-41.5-27.2-68.7-1.3-27.2 7.7-49.2 27.2-68.7 19.5-19.5 41.5-25.9 68.7-27.2 27.2-1.3 49.2 7.7 68.7 27.2 19.5 19.5 25.9 41.5 27.2 68.7z"/></svg>
