<svg xmlns="http://www.w3.org/2000/svg" viewBox="0 0 448 512"><path d="M380.9 97.1C339 55.2 282.4 32 224 32S109 55.2 67.1 97.1C25.2 139 2 195.6 2 254c0 58.4 23.2 115 65.1 156.9C109 456.8 165.6 480 224 480s115-23.2 156.9-65.1C422.8 369 446 312.4 446 254c0-58.4-23.2-115-65.1-156.9zM224 432c-97.2 0-176-78.8-176-176S126.8 80 224 80s176 78.8 176 176-78.8 176-176 176zm0-272c-53 0-96 43-96 96s43 96 96 96 96-43 96-96-43-96-96-96zm0 160c-35.3 0-64-28.7-64-64s28.7-64 64-64 64 28.7 64 64-28.7 64-64 64z"/></svg>
